<?xml version="1.0" encoding="UTF-8" standalone="no"?>
<!-- Created with Inkscape (http://www.inkscape.org/) -->

<svg
   xmlns:dc="http://purl.org/dc/elements/1.1/"
   xmlns:cc="http://creativecommons.org/ns#"
   xmlns:rdf="http://www.w3.org/1999/02/22-rdf-syntax-ns#"
   xmlns:svg="http://www.w3.org/2000/svg"
   xmlns="http://www.w3.org/2000/svg"
   xmlns:sodipodi="http://sodipodi.sourceforge.net/DTD/sodipodi-0.dtd"
   xmlns:inkscape="http://www.inkscape.org/namespaces/inkscape"
   id="svg3336"
   version="1.1"
   inkscape:version="0.91 r13725"
   xml:space="preserve"
   width="720"
   height="450"
   viewBox="0 0 720 450"
   sodipodi:docname="ryken guitars logo neg exp.svg"
   inkscape:export-filename="C:\Users\RyDon\Downloads\ryken.png"
   inkscape:export-xdpi="359.51343"
   inkscape:export-ydpi="359.51343"><metadata
     id="metadata3342"><rdf:RDF><cc:Work
         rdf:about=""><dc:format>image/svg+xml</dc:format><dc:type
           rdf:resource="http://purl.org/dc/dcmitype/StillImage" /><dc:title></dc:title></cc:Work></rdf:RDF></metadata><defs
     id="defs3340"><clipPath
       clipPathUnits="userSpaceOnUse"
       id="clipPath3380"><path
         d="M 0,360 576,360 576,0 0,0 0,360 Z"
         id="path3382"
         inkscape:connector-curvature="0" /></clipPath></defs><sodipodi:namedview
     pagecolor="#ffffff"
     bordercolor="#666666"
     borderopacity="1"
     objecttolerance="10"
     gridtolerance="10"
     guidetolerance="10"
     inkscape:pageopacity="0"
     inkscape:pageshadow="2"
     inkscape:window-width="1600"
     inkscape:window-height="838"
     id="namedview3338"
     showgrid="false"
     inkscape:zoom="1.4019481"
     inkscape:cx="384.37819"
     inkscape:cy="244.48793"
     inkscape:window-x="-8"
     inkscape:window-y="-8"
     inkscape:window-maximized="1"
     inkscape:current-layer="g3344"
     inkscape:snap-to-guides="true"
     inkscape:snap-grids="true"
     inkscape:snap-global="true"
     inkscape:snap-midpoints="false"
     inkscape:snap-bbox="true"
     inkscape:bbox-paths="true"
     inkscape:snap-nodes="false"
     inkscape:snap-others="true"
     inkscape:bbox-nodes="false"
     inkscape:snap-bbox-edge-midpoints="false"
     inkscape:snap-bbox-midpoints="false"
     showguides="true"
     inkscape:snap-page="true"><inkscape:grid
       type="xygrid"
       id="grid3503" /></sodipodi:namedview><g
     id="g3344"
     inkscape:groupmode="layer"
     inkscape:label="Rykenlogostencil (1)"
     transform="matrix(1.25,0,0,-1.25,0,450)"
     style="display:inline"><rect
       style="fill:#000000;fill-opacity:1;stroke:#f9f9f9;stroke-width:0.80000001;stroke-opacity:0.52071007"
       id="rect7266"
       width="577.48212"
       height="362.35294"
       x="0"
       y="-360.0704"
       transform="scale(1,-1)" /><g
       id="g3396"
       transform="translate(49.272,203.8809)" /><g
       id="g3400"
       transform="translate(74.9966,231.2212)" /><g
       id="g3404"
       transform="translate(119.2251,233.2148)" /><g
       id="g3408"
       transform="translate(185.1367,174.8916)" /><g
       id="g3412"
       transform="translate(253.353,174.8916)" /><g
       id="g3416"
       transform="translate(321.5713,235.5264)" /><g
       id="g3420"
       transform="translate(448.4346,235.5264)" /><g
       id="g3424"
       transform="translate(399.1855,201.418)" /><g
       id="g3428"
       transform="translate(372.6592,175.1113)" /><g
       id="g3432"
       transform="translate(507.8223,227.9463)" /><g
       id="g3436"
       transform="translate(545.7197,190.0513)" /><g
       id="g3440"
       transform="translate(564.6553,235.5142)" /><g
       id="g7224"
       style="fill:#ececec"><g
         style="fill:#ececec"
         id="g7210"><g
           style="fill:#ececec"
           id="g3356"
           transform="translate(564.667,235.5259)"><path
             d="m 0,0 -0.15098961,-61.690927 -7.49350519,5.53564 3.9974948,4.838287 0,42.375 1.647,4.047 1.988,4.883 0,0.001 z M -9.575,-6.751 -9.6504948,-57.044924 2,-65.464 2,4.831 Z"
             style="fill:#ececec;fill-opacity:1;fill-rule:nonzero;stroke:none"
             id="path3358"
             inkscape:connector-curvature="0"
             sodipodi:nodetypes="cccccccccccccc" /></g><g
           style="fill:#ececec"
           id="g3360"
           transform="translate(493.8422,175.0986)"><path
             d="M -2.9720711,-0.11396447 0.3955026,3.4956092 0.4118856,51.183961 4.0780208,54.545911 4.0381068,-0.09303553 Z M -5.2,-2.207 l 11.7309896,0 0,58.877877 L -5.2,65.255 Z"
             style="fill:#ececec;fill-opacity:1;fill-rule:nonzero;stroke:none"
             id="path3362"
             inkscape:connector-curvature="0"
             sodipodi:nodetypes="ccccccccccc" /></g><g
           style="fill:#ececec"
           id="g3364"
           transform="translate(516.4256,210.0015)"><path
             d="m 1.7566805,1.1755361 18.8571025,-12.5973921 4.850893,2.0706405 -0.001,-10.4222165 -27.6848718,19.3632876 z M -5.1938752,-1.3895138 27.91407,-24.611583 l 0,16.2829996 -33.1079452,23.2260694 z"
             style="fill:#ececec;fill-opacity:1;fill-rule:nonzero;stroke:none"
             id="path3366"
             inkscape:connector-curvature="0"
             sodipodi:nodetypes="ccccccccccc" /></g></g><g
         style="fill:#ececec"
         id="g7174"><g
           style="fill:#ececec"
           id="g3348"
           transform="translate(187.1571,175.0283)"><path
             d="m 0,0 0,0.001 2,2.129 1.658,1.765 0.4393889,48.045642 3.922,9.045568 L 7.58,-0.137 l 0,0 -7.58,0 0,0 z m -2,-2.137 11.58,0 0,67.463 L -2,53.747 Z"
             style="fill:#ececec;fill-opacity:1;fill-rule:nonzero;stroke:none"
             id="path3350"
             inkscape:connector-curvature="0"
             sodipodi:nodetypes="cccccccccccccccc" /></g><g
           style="fill:#ececec"
           id="g3368"
           transform="translate(166.2821,207.2207)"><path
             d="m 0,0 5.675,-1.979 0.002,-10e-4 0.041,-0.033 -0.001,0 0.001,0 -11.367,0 -37.708,30.166 10e-4,-10e-4 5.899,-2.158 3.161,-1.156 L -5.198,1.813 0,0 Z m -49.249,30.305 42.898,-34.318 17.77,0 -42.898,34.318 -17.77,0 z"
             style="fill:#ececec;fill-opacity:1;fill-rule:nonzero;stroke:none"
             id="path3370"
             inkscape:connector-curvature="0" /></g></g><g
         style="fill:#ececec"
         id="g7180"><g
           style="fill:#ececec"
           id="g3352"
           transform="translate(245.7734,175.0137)"><path
             d="M 0,0 0,0 2.061,1.878 3.97,3.618 3.7407858,49.538213 7.4861459,52.510656 7.58,-0.122 l -7.58,0 0,0 z m -2,-2.122 11.58,0 0,55.883 L -2,65.341 Z"
             style="fill:#ececec;fill-opacity:1;fill-rule:nonzero;stroke:none"
             id="path3354"
             inkscape:connector-curvature="0"
             sodipodi:nodetypes="ccccccccccccccc" /></g><g
           style="fill:#ececec"
           id="g3372"
           transform="translate(283.6719,205.208)"><path
             d="m 0,0 c -5.475,-0.156 0,0 -5.479,-0.16 l 32.951,-26.416 4.721,-1.737 5.446,-2.003 -11.114,0 -10e-4,0 -37.701,30.16 0,0 3.201,0 2.501,0 33.196,26.545 4.076,1.609 5.88,2.32 10e-4,0 0.221,0 -10e-4,0 10e-4,0 z M 25.823,32.318 -14.574,0 l 40.397,-32.316 17.779,0 L 3.201,0 43.602,32.318 Z"
             style="fill:#ececec;fill-opacity:1;fill-rule:nonzero;stroke:none"
             id="path3374"
             inkscape:connector-curvature="0"
             sodipodi:nodetypes="cccccccccccccccccccccccccc" /></g></g><g
         style="fill:#ececec"
         transform="translate(78.7466,178.3457)"
         id="g3384"><path
           sodipodi:nodetypes="ccccccccccccccccccccccccccccccccccccscccccssscccccscccccs"
           inkscape:connector-curvature="0"
           id="path3386"
           style="fill:#ececec;fill-opacity:1;fill-rule:nonzero;stroke:none"
           d="m 0,0 4.191,-1.397 5.489,-1.83 10e-4,0 0.284,-0.227 -10e-4,0 -11.367,0 -45.478,37.898 10e-4,0 -10e-4,0 0.008,0 10e-4,0 9.99148,-3.892957 L -6.875,30.625 c 9.875,0 12.75,7.25 13,11 0.155,2.323 -0.457,4.261 -0.946,5.401 -0.3,0.701 -0.554,1.099 -0.554,1.099 L 3.062,47.209 1.32,46.188 c -1.36,2.22 -3.72,2.997 -5.196,3.268 -0.211,0.039 -0.404,0.067 -0.573,0.088 -0.208,0.025 -0.38,0.039 -0.507,0.047 -0.063,0.004 -0.115,0.006 -0.154,0.008 -0.055,0.002 -0.085,0.002 -0.085,0.002 l -53.055,0 0,-45.476 -7.324,-7.324 0,10e-4 1.993,4.821 1.706,4.127 0.03922,47.12022 L -3.75,52.875 c 0,0 5.75,0 8.375,-4.75 l 1.609,0.986 1.735,1.063 10e-4,0 c 1.208,-2.056 1.995,-4.71 1.995,-8.153 0,-4.381 -1.27,-7.49 -3.07,-9.705 -4.43,-5.448 -12.09,-5.454 -12.09,-5.454 l -21.498406,0.02966 -10.456848,3.742532 z m -5.195,24.862 c 5.93491504,-0.03176 17.159,3.586 17.159,17.159 0,13.573 -11.224,17.159 -17.159,17.159 l -62.635,0 0,-67.462 11.58,11.579 0,44.304 51.043,0 c 0.934,-0.012 5.592,-0.334 5.592,-5.58 0,-5.244 -4.658,-5.566 -5.58,-5.577 l -46.513,0 49.604,-41.898 17.77,0 -36.78809,30.401224 z" /></g><g
         style="fill:#ececec"
         id="g7204"><g
           style="fill:#ececec"
           id="g3388"
           transform="translate(440.8711,227.9463)"><path
             d="m 0,0 -60.637,0 0,-45.474 0.074,0 0,-0.001 -3.942716,-3.456822 3.252716,-0.05518 60,0 3.583,-1.647 5.233,-2.404 0.002,-0.001 0.016,-0.016 -0.001,0 -68.217,0 -7.575,0 3.640982,4.058977 L -64.68498,3.4981454 -1.3890355,3.6490355 2.706,5.535 7.563,7.58 l 0,0 0.018,0 L 0.001,0 Z m 12.409,9.58 -82.621,0 0,-64.635 82.621,0 -11.581,11.58 -59.465,0 0,41.475 59.465,0 z"
             style="fill:#ececec;fill-opacity:1;fill-rule:nonzero;stroke:none"
             id="path3390"
             inkscape:connector-curvature="0"
             sodipodi:nodetypes="ccccccccccccccccccccccccccccccccc" /></g><g
           style="fill:#ececec"
           id="g3392"
           transform="translate(400.1182,205.209)"><path
             d="m 0,0 16.875,0 3.736,-1.638 4.912,-2.153 -26.455,0 -0.001,0 L -8.406,3.685 -3.372,1.479 0,0 Z m -1.762,-5.791 32.185,0 -11.58,11.578 -32.178,0 11.573,-11.578 z"
             style="fill:#ececec;fill-opacity:1;fill-rule:nonzero;stroke:none"
             id="path3394"
             inkscape:connector-curvature="0" /></g></g><path
         sodipodi:nodetypes="ccccccccccccccccccccccccccccccccccccscccccssscccccscccccs"
         inkscape:connector-curvature="0"
         id="path3386-7-74"
         style="display:inline;fill:#ececec;fill-opacity:1;fill-rule:nonzero;stroke:none"
         d="m 472.56147,118.80823 2.20808,-0.7266 2.89194,-0.95181 4.5e-4,0 0.14963,-0.11807 -4.5e-4,0 -5.98882,0 -23.96059,19.71144 5e-4,0 -5e-4,0 0.005,0 5.2e-4,0 5.26412,-2.0248 15.80873,0.0385 c 5.20274,0 6.71748,3.77086 6.84919,5.7213 0.0816,1.20824 -0.24082,2.21622 -0.49845,2.80915 -0.15806,0.36461 -0.29187,0.57162 -0.29187,0.57162 l -0.8235,-0.47643 -0.91779,-0.53103 c -0.71653,1.15465 -1.95991,1.55878 -2.73757,1.69974 -0.11117,0.0203 -0.21285,0.0349 -0.30189,0.0458 -0.10959,0.013 -0.20021,0.0203 -0.26712,0.0245 -0.0332,0.002 -0.0606,0.003 -0.0812,0.004 -0.029,0.001 -0.0448,0.001 -0.0448,0.001 l -27.95259,0 0,-23.65291 -3.85874,-3.80935 0,5.1e-4 1.05004,2.50751 0.89882,2.14652 0.0207,24.5081 30.60312,0.002 c 0,0 3.02945,0 4.41246,-2.47057 l 0.84772,0.51284 0.91411,0.55289 4.4e-4,0 c 0.63646,-1.06936 1.05108,-2.44976 1.05108,-4.24052 0,-2.27865 -0.6691,-3.89569 -1.61745,-5.04776 -2.33399,-2.83361 -6.36975,-2.83672 -6.36975,-2.83672 l -11.32664,0.0154 -5.50932,1.94656 z m -2.73704,12.93119 c 3.12687,-0.0165 9.04041,1.86514 9.04041,8.92472 0,7.05956 -5.91349,8.9247 -9.04041,8.9247 l -32.99993,0 0,-35.08823 6.10105,6.02245 0,23.04333 26.89256,0 c 0.49209,-0.006 2.94621,-0.17371 2.94621,-2.90225 0,-2.7275 -2.45412,-2.89499 -2.93989,-2.90071 l -24.50588,0 26.1344,-21.79191 9.36232,0 -19.3822,15.81222 z" /><g
         style="fill:#ececec"
         transform="translate(1.6,0.60578607)"
         id="g3514"><path
           style="color:#000000;font-style:normal;font-variant:normal;font-weight:normal;font-stretch:normal;font-size:medium;line-height:normal;font-family:sans-serif;text-indent:0;text-align:start;text-decoration:none;text-decoration-line:none;text-decoration-style:solid;text-decoration-color:#000000;letter-spacing:normal;word-spacing:normal;text-transform:none;direction:ltr;block-progression:tb;writing-mode:lr-tb;baseline-shift:baseline;text-anchor:start;white-space:normal;clip-rule:nonzero;display:inline;overflow:visible;visibility:visible;opacity:1;isolation:auto;mix-blend-mode:normal;color-interpolation:sRGB;color-interpolation-filters:linearRGB;solid-color:#000000;solid-opacity:1;fill:#ececec;fill-opacity:1;fill-rule:evenodd;stroke:none;stroke-width:0.80000001px;stroke-linecap:butt;stroke-linejoin:miter;stroke-miterlimit:4;stroke-dasharray:none;stroke-dashoffset:0;stroke-opacity:1;color-rendering:auto;image-rendering:auto;shape-rendering:auto;text-rendering:auto;enable-background:accumulate"
           d="m 19.89675,115.39432 c -5.881604,-0.0325 -10.9709617,7.40735 -11.020356,17.11697 0.0588,9.88163 5.079918,17.27007 10.845916,17.28691 l 35.427859,-0.0555 -6.333463,-6.10203 -27.559096,0.0374 c -2.883038,0.0229 -6.012362,-4.77861 -5.994373,-11.19808 0.254035,-6.50322 2.887388,-11.18025 5.429544,-11.23873 l 16.153047,-0.0305 6.788319,-5.80788 z m 20.711402,0.98042 -7.39709,1.88172 -12.954686,0.0295 c -2.934674,0.34388 -5.044041,3.28138 -6.131639,5.31389 l 1.713535,0.84583 c -0.747561,1.22572 -1.823273,5.05665 -1.690274,7.96016 0.09811,6.78958 2.966372,12.14423 6.812098,12.22725 l 27.513621,-0.0406 4.531027,4.36528 -4.849843,-2.48758 -27.692747,-0.001 c -5.08056,-0.0687 -7.9832,-6.19039 -8.069586,-14.00284 0.0023,-3.54464 0.503519,-6.01179 1.714754,-8.86276 l -1.92507,-0.95735 c 1.473932,-2.89887 3.913917,-5.83559 7.326302,-6.16558 z"
           id="path3384"
           inkscape:connector-curvature="0"
           sodipodi:nodetypes="ccccccccccccccccccccccccccc" /><path
           style="color:#000000;font-style:normal;font-variant:normal;font-weight:normal;font-stretch:normal;font-size:medium;line-height:normal;font-family:sans-serif;text-indent:0;text-align:start;text-decoration:none;text-decoration-line:none;text-decoration-style:solid;text-decoration-color:#000000;letter-spacing:normal;word-spacing:normal;text-transform:none;direction:ltr;block-progression:tb;writing-mode:lr-tb;baseline-shift:baseline;text-anchor:start;white-space:normal;clip-rule:nonzero;display:inline;overflow:visible;visibility:visible;opacity:1;isolation:auto;mix-blend-mode:normal;color-interpolation:sRGB;color-interpolation-filters:linearRGB;solid-color:#000000;solid-opacity:1;fill:#ececec;fill-opacity:1;fill-rule:evenodd;stroke:none;stroke-width:0.80000001px;stroke-linecap:butt;stroke-linejoin:miter;stroke-miterlimit:4;stroke-dasharray:none;stroke-dashoffset:0;stroke-opacity:1;color-rendering:auto;image-rendering:auto;shape-rendering:auto;text-rendering:auto;enable-background:accumulate"
           d="m 46.559797,121.37448 -0.04962,8.0514 -6.968287,0.0102 -5.71727,5.72044 18.928766,0.10713 0.0725,-19.86936 z m 5.185048,-3.62033 -0.05186,16.16874 -2.191823,-1.7867 -7.246362,0.0358 -1.793405,-1.63076 7.09476,0.0151 1.969763,1.5652 -0.0214,-10.28723 z"
           id="path3387"
           inkscape:connector-curvature="0"
           sodipodi:nodetypes="cccccccccccccccc" /></g><path
         sodipodi:nodetypes="cccccccccccccccccccccccccc"
         inkscape:connector-curvature="0"
         id="path3384-1"
         d="m 99.955359,126.29055 c -0.0155,-6.26846 9.660551,-10.28537 22.118971,-10.29055 12.67864,0.079 22.08247,4.14737 22.07845,10.16504 l -0.0135,25.66788 -6.13373,-5.40127 -0.0985,-18.72395 c -0.0116,-3.51976 -7.72151,-5.45256 -15.95829,-5.46046 -8.34527,0.1743 -15.86088,2.06798 -15.83963,5.48546 l 0.0504,18.75565 -6.191181,5.49727 z m 3.028461,18.67043 1.90937,0.90388 -0.15337,-18.58718 c 0.13153,-1.29941 0.52116,-1.95195 1.08983,-2.51693 l -1.37367,-1.33816 c 3.45867,-3.74741 13.81552,-4.4755 17.54034,-4.36283 8.71113,0.0989 19.14587,2.59687 18.91256,7.72191 l 0.0812,19.46327 1.99366,3.34242 0.0142,-23.23819 c -0.0655,-6.241 -10.63906,-9.13948 -20.98539,-9.17902 -5.67765,0.0972 -14.5587,0.89488 -18.81379,4.94143 l 1.30834,1.35935 c -0.70328,0.84593 -1.52807,1.91218 -1.58611,3.41909 z"
         style="color:#000000;font-style:normal;font-variant:normal;font-weight:normal;font-stretch:normal;font-size:medium;line-height:normal;font-family:sans-serif;text-indent:0;text-align:start;text-decoration:none;text-decoration-line:none;text-decoration-style:solid;text-decoration-color:#000000;letter-spacing:normal;word-spacing:normal;text-transform:none;direction:ltr;block-progression:tb;writing-mode:lr-tb;baseline-shift:baseline;text-anchor:start;white-space:normal;clip-rule:nonzero;display:inline;overflow:visible;visibility:visible;opacity:1;isolation:auto;mix-blend-mode:normal;color-interpolation:sRGB;color-interpolation-filters:linearRGB;solid-color:#000000;solid-opacity:1;fill:#ececec;fill-opacity:1;fill-rule:evenodd;stroke:none;stroke-width:0.80000001px;stroke-linecap:butt;stroke-linejoin:miter;stroke-miterlimit:4;stroke-dasharray:none;stroke-dashoffset:0;stroke-opacity:1;color-rendering:auto;image-rendering:auto;shape-rendering:auto;text-rendering:auto;enable-background:accumulate" /><path
         sodipodi:nodetypes="cccccccccccccccc"
         inkscape:connector-curvature="0"
         id="path3437"
         d="m 356.16215,116 -7.78157,0 22.23182,35.29623 L 392.88145,116 l -7.57177,0 -14.60961,23.274 z m 29.72695,1.20551 5.04937,-0.0129 -3.97827,2.065 -16.24248,26.0503 -16.56311,-26.31419 -3.91719,-1.86508 5.18105,-0.003 15.3321,24.42807 z"
         style="color:#000000;font-style:normal;font-variant:normal;font-weight:normal;font-stretch:normal;font-size:medium;line-height:normal;font-family:sans-serif;text-indent:0;text-align:start;text-decoration:none;text-decoration-line:none;text-decoration-style:solid;text-decoration-color:#000000;letter-spacing:normal;word-spacing:normal;text-transform:none;direction:ltr;block-progression:tb;writing-mode:lr-tb;baseline-shift:baseline;text-anchor:start;white-space:normal;clip-rule:nonzero;display:inline;overflow:visible;visibility:visible;opacity:1;isolation:auto;mix-blend-mode:normal;color-interpolation:sRGB;color-interpolation-filters:linearRGB;solid-color:#000000;solid-opacity:1;fill:#ececec;fill-opacity:1;fill-rule:evenodd;stroke:none;stroke-width:0.80000001px;stroke-linecap:butt;stroke-linejoin:miter;stroke-miterlimit:4;stroke-dasharray:none;stroke-dashoffset:0;stroke-opacity:1;color-rendering:auto;image-rendering:auto;shape-rendering:auto;text-rendering:auto;enable-background:accumulate" /><g
         style="fill:#ececec"
         transform="matrix(0.99577241,0,0,0.99577241,24.442337,0.54096545)"
         id="g3526"><path
           style="color:#000000;font-style:normal;font-variant:normal;font-weight:normal;font-stretch:normal;font-size:medium;line-height:normal;font-family:sans-serif;text-indent:0;text-align:start;text-decoration:none;text-decoration-line:none;text-decoration-style:solid;text-decoration-color:#000000;letter-spacing:normal;word-spacing:normal;text-transform:none;direction:ltr;block-progression:tb;writing-mode:lr-tb;baseline-shift:baseline;text-anchor:start;white-space:normal;clip-rule:nonzero;display:inline;overflow:visible;visibility:visible;opacity:1;isolation:auto;mix-blend-mode:normal;color-interpolation:sRGB;color-interpolation-filters:linearRGB;solid-color:#000000;solid-opacity:1;fill:#ececec;fill-opacity:1;fill-rule:evenodd;stroke:none;stroke-width:0.80000001px;stroke-linecap:butt;stroke-linejoin:miter;stroke-miterlimit:4;stroke-dasharray:none;stroke-dashoffset:0;stroke-opacity:1;color-rendering:auto;image-rendering:auto;shape-rendering:auto;text-rendering:auto;enable-background:accumulate"
           d="m 500.07147,131.77931 -0.10163,10.27336 c 0.0889,4.79996 2.48658,7.5798 7.9933,7.6392 l 36.17266,-0.0345 0.007,-6.19438 -35.56604,-0.014 c -1.53014,-0.0201 -2.60578,-0.65998 -2.65056,-2.70558 l -0.0508,-2.8108 3.46299,-0.0433 5.11002,-6.05917 z m 1.1565,1.25813 10.6921,-0.0508 -3.79167,1.96955 -4.93246,0.0375 1.65156,1.84178 -0.0254,4.17937 c 0.0578,2.5636 1.4632,3.4803 3.77405,3.59458 l 34.44831,0.11954 0.0484,3.84616 -1.92106,-2.03104 -32.91959,0.002 c -3.18971,0.0503 -4.96875,-1.55541 -5.04232,-5.1632 l 0,-6.25603 z"
           id="path3439"
           inkscape:connector-curvature="0"
           sodipodi:nodetypes="ccccccccccccccccccccccccc" /><path
           style="color:#000000;font-style:normal;font-variant:normal;font-weight:normal;font-stretch:normal;font-size:medium;line-height:normal;font-family:sans-serif;text-indent:0;text-align:start;text-decoration:none;text-decoration-line:none;text-decoration-style:solid;text-decoration-color:#000000;letter-spacing:normal;word-spacing:normal;text-transform:none;direction:ltr;block-progression:tb;writing-mode:lr-tb;baseline-shift:baseline;text-anchor:start;white-space:normal;clip-rule:nonzero;display:inline;overflow:visible;visibility:visible;opacity:1;isolation:auto;mix-blend-mode:normal;color-interpolation:sRGB;color-interpolation-filters:linearRGB;solid-color:#000000;solid-opacity:1;fill:#ececec;fill-opacity:1;fill-rule:evenodd;stroke:none;stroke-width:0.80000001px;stroke-linecap:butt;stroke-linejoin:miter;stroke-miterlimit:4;stroke-dasharray:none;stroke-dashoffset:0;stroke-opacity:1;color-rendering:auto;image-rendering:auto;shape-rendering:auto;text-rendering:auto;enable-background:accumulate"
           d="m 500.06901,115.94922 0,6.15535 34.65169,-0.0889 c 2.12824,4.1e-4 3.30094,0.95636 3.26168,3.12427 l -0.10496,6.67842 -2.90117,0.0483 -5.54108,6.08131 14.56012,0.0238 0.0521,-13.94969 c 0.0168,-5.32595 -2.53461,-8.08362 -7.93794,-7.9894 l -36.04047,-0.0834 z m 1.25814,1.12326 34.42292,0.007 c 4.74222,-0.2478 7.25102,1.8816 7.17213,7.13364 l 0.0104,12.87746 -2.21508,-2.31525 -3.70886,-0.0395 -5.32287,2.43197 4.07011,-4.27977 3.23317,0.009 1.64535,1.85134 0.22247,-10.14155 c 0.2208,-3.75626 -1.45753,-5.73591 -5.43674,-5.56312 l -32.31438,-0.0987 z"
           id="path3441"
           inkscape:connector-curvature="0"
           sodipodi:nodetypes="cccccccccccccccccccccccccc" /></g><g
         style="fill:#ececec"
         transform="matrix(0.98553955,0,0,0.98553955,16.871334,1.9783857)"
         id="g3505"><path
           style="color:#000000;font-style:normal;font-variant:normal;font-weight:normal;font-stretch:normal;font-size:medium;line-height:normal;font-family:sans-serif;text-indent:0;text-align:start;text-decoration:none;text-decoration-line:none;text-decoration-style:solid;text-decoration-color:#000000;letter-spacing:normal;word-spacing:normal;text-transform:none;direction:ltr;block-progression:tb;writing-mode:lr-tb;baseline-shift:baseline;text-anchor:start;white-space:normal;clip-rule:nonzero;display:inline;overflow:visible;visibility:visible;opacity:1;isolation:auto;mix-blend-mode:normal;color-interpolation:sRGB;color-interpolation-filters:linearRGB;solid-color:#000000;solid-opacity:1;fill:#ececec;fill-opacity:1;fill-rule:evenodd;stroke:none;stroke-width:0.80000001px;stroke-linecap:butt;stroke-linejoin:miter;stroke-miterlimit:4;stroke-dasharray:none;stroke-dashoffset:0;stroke-opacity:1;color-rendering:auto;image-rendering:auto;shape-rendering:auto;text-rendering:auto;enable-background:accumulate"
           d="m 170.90301,143.9025 7.10784,5.80651 38.98592,0.0786 -6.0215,-5.88513 -40.07226,0 z m 2.55284,0.92471 36.86894,0 4.79712,4.13169 -5.23698,-2.3576 -29.77404,-0.0541 z"
           id="path3427"
           inkscape:connector-curvature="0"
           sodipodi:nodetypes="cccccccccccc" /><path
           style="color:#000000;font-style:normal;font-variant:normal;font-weight:normal;font-stretch:normal;font-size:medium;line-height:normal;font-family:sans-serif;text-indent:0;text-align:start;text-decoration:none;text-decoration-line:none;text-decoration-style:solid;text-decoration-color:#000000;letter-spacing:normal;word-spacing:normal;text-transform:none;direction:ltr;block-progression:tb;writing-mode:lr-tb;baseline-shift:baseline;text-anchor:start;white-space:normal;clip-rule:nonzero;display:inline;overflow:visible;visibility:visible;opacity:1;isolation:auto;mix-blend-mode:normal;color-interpolation:sRGB;color-interpolation-filters:linearRGB;solid-color:#000000;solid-opacity:1;fill:#ececec;fill-opacity:1;fill-rule:evenodd;stroke:none;stroke-width:0.80000001px;stroke-linecap:butt;stroke-linejoin:miter;stroke-miterlimit:4;stroke-dasharray:none;stroke-dashoffset:0;stroke-opacity:1;color-rendering:auto;image-rendering:auto;shape-rendering:auto;text-rendering:auto;enable-background:accumulate"
           d="m 171.0434,115.69463 7.10784,5.80651 38.98592,0.0786 -6.0215,-5.88513 -40.07226,0 z m 2.55284,0.92471 36.86894,0 4.79712,4.13169 -5.23698,-2.3576 -29.77404,-0.0541 z"
           id="path3427-8"
           inkscape:connector-curvature="0"
           sodipodi:nodetypes="cccccccccccc" /><path
           style="color:#000000;font-style:normal;font-variant:normal;font-weight:normal;font-stretch:normal;font-size:medium;line-height:normal;font-family:sans-serif;text-indent:0;text-align:start;text-decoration:none;text-decoration-line:none;text-decoration-style:solid;text-decoration-color:#000000;letter-spacing:normal;word-spacing:normal;text-transform:none;direction:ltr;block-progression:tb;writing-mode:lr-tb;baseline-shift:baseline;text-anchor:start;white-space:normal;clip-rule:nonzero;display:inline;overflow:visible;visibility:visible;opacity:1;isolation:auto;mix-blend-mode:normal;color-interpolation:sRGB;color-interpolation-filters:linearRGB;solid-color:#000000;solid-opacity:1;fill:#ececec;fill-opacity:1;fill-rule:evenodd;stroke:none;stroke-width:0.80000001px;stroke-linecap:butt;stroke-linejoin:miter;stroke-miterlimit:4;stroke-dasharray:none;stroke-dashoffset:0;stroke-opacity:1;color-rendering:auto;image-rendering:auto;shape-rendering:auto;text-rendering:auto;enable-background:accumulate"
           d="m 196.73768,124.57377 -5.43485,-0.0196 -0.0261,16.24582 5.50953,0.0121 z m -1.11754,1.2218 0.124,13.97277 -1.73841,-1.61701 -0.009,-10.23737 -1.5832,-2.11043 z"
           id="path3427-3"
           inkscape:connector-curvature="0"
           sodipodi:nodetypes="ccccccccccc" /></g><g
         style="fill:#ececec"
         transform="translate(14.4,0)"
         id="g3510"><path
           style="color:#000000;font-style:normal;font-variant:normal;font-weight:normal;font-stretch:normal;font-size:medium;line-height:normal;font-family:sans-serif;text-indent:0;text-align:start;text-decoration:none;text-decoration-line:none;text-decoration-style:solid;text-decoration-color:#000000;letter-spacing:normal;word-spacing:normal;text-transform:none;direction:ltr;block-progression:tb;writing-mode:lr-tb;baseline-shift:baseline;text-anchor:start;white-space:normal;clip-rule:nonzero;display:inline;overflow:visible;visibility:visible;opacity:1;isolation:auto;mix-blend-mode:normal;color-interpolation:sRGB;color-interpolation-filters:linearRGB;solid-color:#000000;solid-opacity:1;fill:#ececec;fill-opacity:1;fill-rule:evenodd;stroke:none;stroke-width:0.80000001px;stroke-linecap:butt;stroke-linejoin:miter;stroke-miterlimit:4;stroke-dasharray:none;stroke-dashoffset:0;stroke-opacity:1;color-rendering:auto;image-rendering:auto;shape-rendering:auto;text-rendering:auto;enable-background:accumulate"
           d="m 254.83147,143.53747 7.10784,5.96072 38.98592,0.0807 -6.0215,-6.04142 -40.07226,0 z m 2.55284,0.94927 36.86894,0 4.79712,4.24141 -5.23698,-2.42021 -29.77404,-0.0556 z"
           id="path3427-5"
           inkscape:connector-curvature="0"
           sodipodi:nodetypes="cccccccccccc" /><path
           style="color:#000000;font-style:normal;font-variant:normal;font-weight:normal;font-stretch:normal;font-size:medium;line-height:normal;font-family:sans-serif;text-indent:0;text-align:start;text-decoration:none;text-decoration-line:none;text-decoration-style:solid;text-decoration-color:#000000;letter-spacing:normal;word-spacing:normal;text-transform:none;direction:ltr;block-progression:tb;writing-mode:lr-tb;baseline-shift:baseline;text-anchor:start;white-space:normal;clip-rule:nonzero;display:inline;overflow:visible;visibility:visible;opacity:1;isolation:auto;mix-blend-mode:normal;color-interpolation:sRGB;color-interpolation-filters:linearRGB;solid-color:#000000;solid-opacity:1;fill:#ececec;fill-opacity:1;fill-rule:evenodd;stroke:none;stroke-width:0.80000001px;stroke-linecap:butt;stroke-linejoin:miter;stroke-miterlimit:4;stroke-dasharray:none;stroke-dashoffset:0;stroke-opacity:1;color-rendering:auto;image-rendering:auto;shape-rendering:auto;text-rendering:auto;enable-background:accumulate"
           d="m 281.2825,140.86503 -6.07291,0.0606 -0.0945,-26.81329 6.06206,5.82881 z m -0.9562,-1.30328 -0.098,-18.98671 -4.25722,-4.64512 2.43501,5.07694 0.22177,16.24135 z"
           id="path3427-3-3"
           inkscape:connector-curvature="0"
           sodipodi:nodetypes="ccccccccccc" /></g></g></g></svg>